<svg width="192" height="192" viewBox="0 0 192 192" fill="none" xmlns="http://www.w3.org/2000/svg">
<rect width="192" height="192" rx="15" fill="#3874FF"/>
<path d="M65.7272 70.1043V67.0097L81.0563 58.0137H85.1585L102.431 92.7741L106.101 90.9749V79.3881C106.101 76.5094 105.597 74.2784 104.59 72.6951C103.63 71.0639 102.671 70.0803 101.711 69.7445L100.056 69.4566V66.218L114.233 57.8698C114.761 57.8698 115.721 58.3975 117.112 59.4531C118.551 60.5086 119.895 61.78 121.142 63.2674C122.438 64.7067 123.085 66.0981 123.085 67.4415V90.3992C123.085 92.0304 117.376 94.8852 105.957 98.9633L120.854 126.671C122.15 128.734 124.813 129.765 128.843 129.765V133.004L112.722 142H108.62L90.0523 104.721L86.0941 106.592V120.482C86.0941 123.312 86.5739 125.543 87.5334 127.175C88.541 128.806 89.5245 129.718 90.4841 129.909L92.1394 130.341V133.58L77.9617 142C77.4819 142 76.5224 141.472 75.083 140.417C73.6437 139.361 72.2763 138.09 70.9809 136.602C69.7334 135.115 69.1097 133.724 69.1097 132.428V107.24C69.1097 105.656 74.9631 102.706 86.6698 98.3876L75.155 74.9261C74.1474 72.6711 72.828 71.3038 71.1968 70.824C69.6135 70.3442 67.7903 70.1043 65.7272 70.1043Z" fill="white"/>
</svg>
