<svg width="192" height="192" viewBox="0 0 192 192" fill="none" xmlns="http://www.w3.org/2000/svg">
<rect x="0.5" y="0.5" width="191" height="191" rx="14.5" fill="#556AF2" stroke="#556AF2"/>
<mask id="path-4-outside-1_1007_4022" maskUnits="userSpaceOnUse" x="47.5986" y="49.6816" width="48" height="39" fill="black">
<rect fill="white" x="47.5986" y="49.6816" width="48" height="39"/>
</mask>
<g clip-path="url(#paint0_diamond_1007_4022_clip_path)" data-figma-skip-parse="true" mask="url(#path-4-outside-1_1007_4022)"><g transform="matrix(0.0199967 0.015149 -0.0178542 0.0942701 73.5953 71.4664)"><rect x="0" y="0" width="1293.19" height="397.259" fill="url(#paint0_diamond_1007_4022)" opacity="1" shape-rendering="crispEdges"/><rect x="0" y="0" width="1293.19" height="397.259" transform="scale(1 -1)" fill="url(#paint0_diamond_1007_4022)" opacity="1" shape-rendering="crispEdges"/><rect x="0" y="0" width="1293.19" height="397.259" transform="scale(-1 1)" fill="url(#paint0_diamond_1007_4022)" opacity="1" shape-rendering="crispEdges"/><rect x="0" y="0" width="1293.19" height="397.259" transform="scale(-1)" fill="url(#paint0_diamond_1007_4022)" opacity="1" shape-rendering="crispEdges"/></g></g><path d="M53.5986 52.6816V50.1528H48.5553L51.5722 54.1944L53.5986 52.6816ZM66.9298 52.6816L68.9182 51.1193L68.1589 50.1528H66.9298V52.6816ZM53.5986 52.6816V55.2105H66.9298V52.6816V50.1528H53.5986V52.6816ZM66.9298 52.6816L64.9413 54.244L91.6036 88.1778L93.592 86.6154L95.5805 85.0531L68.9182 51.1193L66.9298 52.6816ZM53.5986 52.6816L51.5722 54.1944L72.9828 82.8765L75.0092 81.3638L77.0357 79.851L55.6251 51.1689L53.5986 52.6816Z" data-figma-gradient-fill="{&#34;type&#34;:&#34;GRADIENT_DIAMOND&#34;,&#34;stops&#34;:[{&#34;color&#34;:{&#34;r&#34;:1.0,&#34;g&#34;:1.0,&#34;b&#34;:1.0,&#34;a&#34;:1.0},&#34;position&#34;:0.0},{&#34;color&#34;:{&#34;r&#34;:1.0,&#34;g&#34;:1.0,&#34;b&#34;:1.0,&#34;a&#34;:1.0},&#34;position&#34;:0.12019230425357819},{&#34;color&#34;:{&#34;r&#34;:1.0,&#34;g&#34;:1.0,&#34;b&#34;:1.0,&#34;a&#34;:1.0},&#34;position&#34;:1.0}],&#34;stopsVar&#34;:[{&#34;color&#34;:{&#34;r&#34;:1.0,&#34;g&#34;:1.0,&#34;b&#34;:1.0,&#34;a&#34;:1.0},&#34;position&#34;:0.0},{&#34;color&#34;:{&#34;r&#34;:1.0,&#34;g&#34;:1.0,&#34;b&#34;:1.0,&#34;a&#34;:1.0},&#34;position&#34;:0.12019230425357819},{&#34;color&#34;:{&#34;r&#34;:1.0,&#34;g&#34;:1.0,&#34;b&#34;:1.0,&#34;a&#34;:1.0},&#34;position&#34;:1.0}],&#34;transform&#34;:{&#34;m00&#34;:39.993389129638672,&#34;m01&#34;:-35.708381652832031,&#34;m02&#34;:71.452819824218750,&#34;m10&#34;:30.298017501831055,&#34;m11&#34;:188.54023742675781,&#34;m12&#34;:-37.952709197998047},&#34;opacity&#34;:1.0,&#34;blendMode&#34;:&#34;NORMAL&#34;,&#34;visible&#34;:true}" mask="url(#path-4-outside-1_1007_4022)"/>
<mask id="path-6-inside-2_1007_4022" fill="white">
<path d="M85.5141 86.2004C85.5141 90.7024 81.8645 94.352 77.3625 94.352C72.8605 94.352 69.2109 90.7024 69.2109 86.2004C69.2109 81.6984 72.8605 78.0488 77.3625 78.0488C81.8645 78.0488 85.5141 81.6984 85.5141 86.2004Z"/>
</mask>
<g clip-path="url(#paint1_diamond_1007_4022_clip_path)" data-figma-skip-parse="true" mask="url(#path-6-inside-2_1007_4022)"><g transform="matrix(0.00815158 0.0072782 -0.0072782 0.0452912 77.3625 87.0738)"><rect x="0" y="0" width="1449.97" height="438.03" fill="url(#paint1_diamond_1007_4022)" opacity="1" shape-rendering="crispEdges"/><rect x="0" y="0" width="1449.97" height="438.03" transform="scale(1 -1)" fill="url(#paint1_diamond_1007_4022)" opacity="1" shape-rendering="crispEdges"/><rect x="0" y="0" width="1449.97" height="438.03" transform="scale(-1 1)" fill="url(#paint1_diamond_1007_4022)" opacity="1" shape-rendering="crispEdges"/><rect x="0" y="0" width="1449.97" height="438.03" transform="scale(-1)" fill="url(#paint1_diamond_1007_4022)" opacity="1" shape-rendering="crispEdges"/></g></g><path d="M85.5141 86.2004H82.1424C82.1424 88.8402 80.0024 90.9802 77.3625 90.9802V94.352V97.7237C83.7267 97.7237 88.8859 92.5646 88.8859 86.2004H85.5141ZM77.3625 94.352V90.9802C74.7227 90.9802 72.5827 88.8402 72.5827 86.2004H69.2109H65.8392C65.8392 92.5646 70.9984 97.7237 77.3625 97.7237V94.352ZM69.2109 86.2004H72.5827C72.5827 83.5606 74.7227 81.4206 77.3625 81.4206V78.0488V74.6771C70.9984 74.6771 65.8392 79.8363 65.8392 86.2004H69.2109ZM77.3625 78.0488V81.4206C80.0024 81.4206 82.1424 83.5606 82.1424 86.2004H85.5141H88.8859C88.8859 79.8363 83.7267 74.6771 77.3625 74.6771V78.0488Z" data-figma-gradient-fill="{&#34;type&#34;:&#34;GRADIENT_DIAMOND&#34;,&#34;stops&#34;:[{&#34;color&#34;:{&#34;r&#34;:1.0,&#34;g&#34;:1.0,&#34;b&#34;:1.0,&#34;a&#34;:1.0},&#34;position&#34;:0.0},{&#34;color&#34;:{&#34;r&#34;:1.0,&#34;g&#34;:1.0,&#34;b&#34;:1.0,&#34;a&#34;:1.0},&#34;position&#34;:0.12019230425357819},{&#34;color&#34;:{&#34;r&#34;:1.0,&#34;g&#34;:1.0,&#34;b&#34;:1.0,&#34;a&#34;:1.0},&#34;position&#34;:1.0}],&#34;stopsVar&#34;:[{&#34;color&#34;:{&#34;r&#34;:1.0,&#34;g&#34;:1.0,&#34;b&#34;:1.0,&#34;a&#34;:1.0},&#34;position&#34;:0.0},{&#34;color&#34;:{&#34;r&#34;:1.0,&#34;g&#34;:1.0,&#34;b&#34;:1.0,&#34;a&#34;:1.0},&#34;position&#34;:0.12019230425357819},{&#34;color&#34;:{&#34;r&#34;:1.0,&#34;g&#34;:1.0,&#34;b&#34;:1.0,&#34;a&#34;:1.0},&#34;position&#34;:1.0}],&#34;transform&#34;:{&#34;m00&#34;:16.303167343139648,&#34;m01&#34;:-14.556399345397949,&#34;m02&#34;:76.48913574218750,&#34;m10&#34;:14.556400299072266,&#34;m11&#34;:90.58239746093750,&#34;m12&#34;:34.504398345947266},&#34;opacity&#34;:1.0,&#34;blendMode&#34;:&#34;NORMAL&#34;,&#34;visible&#34;:true}" mask="url(#path-6-inside-2_1007_4022)"/>
<g filter="url(#filter0_d_1007_4022)">
<mask id="path-8-outside-3_1007_4022" maskUnits="userSpaceOnUse" x="42.9042" y="32.635" width="105.582" height="125.983" fill="black">
<rect fill="white" x="42.9042" y="32.635" width="105.582" height="125.983"/>
<path d="M121.777 52.3802L136.996 52.3765L68.8513 139.627L54.3131 139.631L121.777 52.3802Z"/>
</mask>
<g clip-path="url(#paint2_diamond_1007_4022_clip_path)" data-figma-skip-parse="true" mask="url(#path-8-outside-3_1007_4022)"><g transform="matrix(-0.0280892 0.0458255 -0.208486 0.258921 91.5594 100.938)"><rect x="0" y="0" width="1778.95" height="446.531" fill="url(#paint2_diamond_1007_4022)" opacity="1" shape-rendering="crispEdges"/><rect x="0" y="0" width="1778.95" height="446.531" transform="scale(1 -1)" fill="url(#paint2_diamond_1007_4022)" opacity="1" shape-rendering="crispEdges"/><rect x="0" y="0" width="1778.95" height="446.531" transform="scale(-1 1)" fill="url(#paint2_diamond_1007_4022)" opacity="1" shape-rendering="crispEdges"/><rect x="0" y="0" width="1778.95" height="446.531" transform="scale(-1)" fill="url(#paint2_diamond_1007_4022)" opacity="1" shape-rendering="crispEdges"/></g></g><path d="M121.777 52.3802L121.776 47.3226L119.294 47.3232L117.776 49.2865L121.777 52.3802ZM136.996 52.3765L140.982 55.4896L147.365 47.3163L136.995 47.3188L136.996 52.3765ZM68.8513 139.627L68.8526 144.685L71.3191 144.684L72.8373 142.74L68.8513 139.627ZM54.3131 139.631L50.312 136.537L44.0072 144.691L54.3144 144.688L54.3131 139.631ZM121.777 52.3802L121.779 57.4378L136.997 57.4341L136.996 52.3765L136.995 47.3188L121.776 47.3226L121.777 52.3802ZM136.996 52.3765L133.01 49.2633L64.8653 136.514L68.8513 139.627L72.8373 142.74L140.982 55.4896L136.996 52.3765ZM68.8513 139.627L68.85 134.569L54.3118 134.573L54.3131 139.631L54.3144 144.688L68.8526 144.685L68.8513 139.627ZM54.3131 139.631L58.3141 142.724L125.778 55.4739L121.777 52.3802L117.776 49.2865L50.312 136.537L54.3131 139.631Z" data-figma-gradient-fill="{&#34;type&#34;:&#34;GRADIENT_DIAMOND&#34;,&#34;stops&#34;:[{&#34;color&#34;:{&#34;r&#34;:1.0,&#34;g&#34;:1.0,&#34;b&#34;:1.0,&#34;a&#34;:1.0},&#34;position&#34;:0.0},{&#34;color&#34;:{&#34;r&#34;:1.0,&#34;g&#34;:1.0,&#34;b&#34;:1.0,&#34;a&#34;:1.0},&#34;position&#34;:0.12019230425357819},{&#34;color&#34;:{&#34;r&#34;:1.0,&#34;g&#34;:1.0,&#34;b&#34;:1.0,&#34;a&#34;:1.0},&#34;position&#34;:1.0}],&#34;stopsVar&#34;:[{&#34;color&#34;:{&#34;r&#34;:1.0,&#34;g&#34;:1.0,&#34;b&#34;:1.0,&#34;a&#34;:1.0},&#34;position&#34;:0.0},{&#34;color&#34;:{&#34;r&#34;:1.0,&#34;g&#34;:1.0,&#34;b&#34;:1.0,&#34;a&#34;:1.0},&#34;position&#34;:0.12019230425357819},{&#34;color&#34;:{&#34;r&#34;:1.0,&#34;g&#34;:1.0,&#34;b&#34;:1.0,&#34;a&#34;:1.0},&#34;position&#34;:1.0}],&#34;transform&#34;:{&#34;m00&#34;:-56.178386688232422,&#34;m01&#34;:-416.97177124023438,&#34;m02&#34;:328.1345214843750,&#34;m10&#34;:91.650962829589844,&#34;m11&#34;:517.84210205078125,&#34;m12&#34;:-203.80812072753906},&#34;opacity&#34;:1.0,&#34;blendMode&#34;:&#34;NORMAL&#34;,&#34;visible&#34;:true}" mask="url(#path-8-outside-3_1007_4022)"/>
</g>
<mask id="path-11-outside-4_1007_4022" maskUnits="userSpaceOnUse" x="94.8184" y="106.9" width="48" height="39" fill="black">
<rect fill="white" x="94.8184" y="106.9" width="48" height="39"/>
</mask>
<g clip-path="url(#paint3_diamond_1007_4022_clip_path)" data-figma-skip-parse="true" mask="url(#path-11-outside-4_1007_4022)"><g transform="matrix(-0.0199967 -0.015149 0.0178542 -0.0942701 116.822 124.116)"><rect x="0" y="0" width="1293.19" height="397.259" fill="url(#paint3_diamond_1007_4022)" opacity="1" shape-rendering="crispEdges"/><rect x="0" y="0" width="1293.19" height="397.259" transform="scale(1 -1)" fill="url(#paint3_diamond_1007_4022)" opacity="1" shape-rendering="crispEdges"/><rect x="0" y="0" width="1293.19" height="397.259" transform="scale(-1 1)" fill="url(#paint3_diamond_1007_4022)" opacity="1" shape-rendering="crispEdges"/><rect x="0" y="0" width="1293.19" height="397.259" transform="scale(-1)" fill="url(#paint3_diamond_1007_4022)" opacity="1" shape-rendering="crispEdges"/></g></g><path d="M136.818 142.9V145.429H141.862L138.845 141.388L136.818 142.9ZM123.487 142.9L121.499 144.463L122.258 145.429H123.487V142.9ZM136.818 142.9V140.372H123.487V142.9V145.429H136.818V142.9ZM123.487 142.9L125.476 141.338L98.8134 107.404L96.825 108.967L94.8365 110.529L121.499 144.463L123.487 142.9ZM136.818 142.9L138.845 141.388L117.434 112.706L115.408 114.218L113.381 115.731L134.792 144.413L136.818 142.9Z" data-figma-gradient-fill="{&#34;type&#34;:&#34;GRADIENT_DIAMOND&#34;,&#34;stops&#34;:[{&#34;color&#34;:{&#34;r&#34;:1.0,&#34;g&#34;:1.0,&#34;b&#34;:1.0,&#34;a&#34;:1.0},&#34;position&#34;:0.0},{&#34;color&#34;:{&#34;r&#34;:1.0,&#34;g&#34;:1.0,&#34;b&#34;:1.0,&#34;a&#34;:1.0},&#34;position&#34;:0.12019230425357819},{&#34;color&#34;:{&#34;r&#34;:1.0,&#34;g&#34;:1.0,&#34;b&#34;:1.0,&#34;a&#34;:1.0},&#34;position&#34;:1.0}],&#34;stopsVar&#34;:[{&#34;color&#34;:{&#34;r&#34;:1.0,&#34;g&#34;:1.0,&#34;b&#34;:1.0,&#34;a&#34;:1.0},&#34;position&#34;:0.0},{&#34;color&#34;:{&#34;r&#34;:1.0,&#34;g&#34;:1.0,&#34;b&#34;:1.0,&#34;a&#34;:1.0},&#34;position&#34;:0.12019230425357819},{&#34;color&#34;:{&#34;r&#34;:1.0,&#34;g&#34;:1.0,&#34;b&#34;:1.0,&#34;a&#34;:1.0},&#34;position&#34;:1.0}],&#34;transform&#34;:{&#34;m00&#34;:-39.993389129638672,&#34;m01&#34;:35.708381652832031,&#34;m02&#34;:118.96417236328125,&#34;m10&#34;:-30.298017501831055,&#34;m11&#34;:-188.54023742675781,&#34;m12&#34;:233.53474426269531},&#34;opacity&#34;:1.0,&#34;blendMode&#34;:&#34;NORMAL&#34;,&#34;visible&#34;:true}" mask="url(#path-11-outside-4_1007_4022)"/>
<mask id="path-13-inside-5_1007_4022" fill="white">
<path d="M104.9 109.368C104.9 104.866 108.55 101.216 113.052 101.216C117.554 101.216 121.203 104.866 121.203 109.368C121.203 113.87 117.554 117.52 113.052 117.52C108.55 117.52 104.9 113.87 104.9 109.368Z"/>
</mask>
<g clip-path="url(#paint4_diamond_1007_4022_clip_path)" data-figma-skip-parse="true" mask="url(#path-13-inside-5_1007_4022)"><g transform="matrix(-0.00815158 -0.0072782 0.0072782 -0.0452912 113.052 108.495)"><rect x="0" y="0" width="1449.97" height="438.03" fill="url(#paint4_diamond_1007_4022)" opacity="1" shape-rendering="crispEdges"/><rect x="0" y="0" width="1449.97" height="438.03" transform="scale(1 -1)" fill="url(#paint4_diamond_1007_4022)" opacity="1" shape-rendering="crispEdges"/><rect x="0" y="0" width="1449.97" height="438.03" transform="scale(-1 1)" fill="url(#paint4_diamond_1007_4022)" opacity="1" shape-rendering="crispEdges"/><rect x="0" y="0" width="1449.97" height="438.03" transform="scale(-1)" fill="url(#paint4_diamond_1007_4022)" opacity="1" shape-rendering="crispEdges"/></g></g><path d="M104.9 109.368H108.272C108.272 106.728 110.412 104.588 113.052 104.588V101.216V97.8446C106.687 97.8446 101.528 103.004 101.528 109.368H104.9ZM113.052 101.216V104.588C115.691 104.588 117.831 106.728 117.831 109.368H121.203H124.575C124.575 103.004 119.416 97.8446 113.052 97.8446V101.216ZM121.203 109.368H117.831C117.831 112.008 115.691 114.148 113.052 114.148V117.52V120.891C119.416 120.891 124.575 115.732 124.575 109.368H121.203ZM113.052 117.52V114.148C110.412 114.148 108.272 112.008 108.272 109.368H104.9H101.528C101.528 115.732 106.687 120.891 113.052 120.891V117.52Z" data-figma-gradient-fill="{&#34;type&#34;:&#34;GRADIENT_DIAMOND&#34;,&#34;stops&#34;:[{&#34;color&#34;:{&#34;r&#34;:1.0,&#34;g&#34;:1.0,&#34;b&#34;:1.0,&#34;a&#34;:1.0},&#34;position&#34;:0.0},{&#34;color&#34;:{&#34;r&#34;:1.0,&#34;g&#34;:1.0,&#34;b&#34;:1.0,&#34;a&#34;:1.0},&#34;position&#34;:0.12019230425357819},{&#34;color&#34;:{&#34;r&#34;:1.0,&#34;g&#34;:1.0,&#34;b&#34;:1.0,&#34;a&#34;:1.0},&#34;position&#34;:1.0}],&#34;stopsVar&#34;:[{&#34;color&#34;:{&#34;r&#34;:1.0,&#34;g&#34;:1.0,&#34;b&#34;:1.0,&#34;a&#34;:1.0},&#34;position&#34;:0.0},{&#34;color&#34;:{&#34;r&#34;:1.0,&#34;g&#34;:1.0,&#34;b&#34;:1.0,&#34;a&#34;:1.0},&#34;position&#34;:0.12019230425357819},{&#34;color&#34;:{&#34;r&#34;:1.0,&#34;g&#34;:1.0,&#34;b&#34;:1.0,&#34;a&#34;:1.0},&#34;position&#34;:1.0}],&#34;transform&#34;:{&#34;m00&#34;:-16.303167343139648,&#34;m01&#34;:14.556399345397949,&#34;m02&#34;:113.92492675781250,&#34;m10&#34;:-14.556400299072266,&#34;m11&#34;:-90.58239746093750,&#34;m12&#34;:161.063964843750},&#34;opacity&#34;:1.0,&#34;blendMode&#34;:&#34;NORMAL&#34;,&#34;visible&#34;:true}" mask="url(#path-13-inside-5_1007_4022)"/>
<defs>
<clipPath id="paint0_diamond_1007_4022_clip_path"><path d="M53.5986 52.6816V50.1528H48.5553L51.5722 54.1944L53.5986 52.6816ZM66.9298 52.6816L68.9182 51.1193L68.1589 50.1528H66.9298V52.6816ZM53.5986 52.6816V55.2105H66.9298V52.6816V50.1528H53.5986V52.6816ZM66.9298 52.6816L64.9413 54.244L91.6036 88.1778L93.592 86.6154L95.5805 85.0531L68.9182 51.1193L66.9298 52.6816ZM53.5986 52.6816L51.5722 54.1944L72.9828 82.8765L75.0092 81.3638L77.0357 79.851L55.6251 51.1689L53.5986 52.6816Z" mask="url(#path-4-outside-1_1007_4022)"/></clipPath><clipPath id="paint1_diamond_1007_4022_clip_path"><path d="M85.5141 86.2004H82.1424C82.1424 88.8402 80.0024 90.9802 77.3625 90.9802V94.352V97.7237C83.7267 97.7237 88.8859 92.5646 88.8859 86.2004H85.5141ZM77.3625 94.352V90.9802C74.7227 90.9802 72.5827 88.8402 72.5827 86.2004H69.2109H65.8392C65.8392 92.5646 70.9984 97.7237 77.3625 97.7237V94.352ZM69.2109 86.2004H72.5827C72.5827 83.5606 74.7227 81.4206 77.3625 81.4206V78.0488V74.6771C70.9984 74.6771 65.8392 79.8363 65.8392 86.2004H69.2109ZM77.3625 78.0488V81.4206C80.0024 81.4206 82.1424 83.5606 82.1424 86.2004H85.5141H88.8859C88.8859 79.8363 83.7267 74.6771 77.3625 74.6771V78.0488Z" mask="url(#path-6-inside-2_1007_4022)"/></clipPath><filter id="filter0_d_1007_4022" x="40.775" y="47.3164" width="109.822" height="103.839" filterUnits="userSpaceOnUse" color-interpolation-filters="sRGB">
<feFlood flood-opacity="0" result="BackgroundImageFix"/>
<feColorMatrix in="SourceAlpha" type="matrix" values="0 0 0 0 0 0 0 0 0 0 0 0 0 0 0 0 0 0 127 0" result="hardAlpha"/>
<feOffset dy="3.23179"/>
<feGaussianBlur stdDeviation="1.61589"/>
<feComposite in2="hardAlpha" operator="out"/>
<feColorMatrix type="matrix" values="0 0 0 0 0 0 0 0 0 0 0 0 0 0 0 0 0 0 0.25 0"/>
<feBlend mode="normal" in2="BackgroundImageFix" result="effect1_dropShadow_1007_4022"/>
<feBlend mode="normal" in="SourceGraphic" in2="effect1_dropShadow_1007_4022" result="shape"/>
</filter>
<clipPath id="paint2_diamond_1007_4022_clip_path"><path d="M121.777 52.3802L121.776 47.3226L119.294 47.3232L117.776 49.2865L121.777 52.3802ZM136.996 52.3765L140.982 55.4896L147.365 47.3163L136.995 47.3188L136.996 52.3765ZM68.8513 139.627L68.8526 144.685L71.3191 144.684L72.8373 142.74L68.8513 139.627ZM54.3131 139.631L50.312 136.537L44.0072 144.691L54.3144 144.688L54.3131 139.631ZM121.777 52.3802L121.779 57.4378L136.997 57.4341L136.996 52.3765L136.995 47.3188L121.776 47.3226L121.777 52.3802ZM136.996 52.3765L133.01 49.2633L64.8653 136.514L68.8513 139.627L72.8373 142.74L140.982 55.4896L136.996 52.3765ZM68.8513 139.627L68.85 134.569L54.3118 134.573L54.3131 139.631L54.3144 144.688L68.8526 144.685L68.8513 139.627ZM54.3131 139.631L58.3141 142.724L125.778 55.4739L121.777 52.3802L117.776 49.2865L50.312 136.537L54.3131 139.631Z" mask="url(#path-8-outside-3_1007_4022)"/></clipPath><clipPath id="paint3_diamond_1007_4022_clip_path"><path d="M136.818 142.9V145.429H141.862L138.845 141.388L136.818 142.9ZM123.487 142.9L121.499 144.463L122.258 145.429H123.487V142.9ZM136.818 142.9V140.372H123.487V142.9V145.429H136.818V142.9ZM123.487 142.9L125.476 141.338L98.8134 107.404L96.825 108.967L94.8365 110.529L121.499 144.463L123.487 142.9ZM136.818 142.9L138.845 141.388L117.434 112.706L115.408 114.218L113.381 115.731L134.792 144.413L136.818 142.9Z" mask="url(#path-11-outside-4_1007_4022)"/></clipPath><clipPath id="paint4_diamond_1007_4022_clip_path"><path d="M104.9 109.368H108.272C108.272 106.728 110.412 104.588 113.052 104.588V101.216V97.8446C106.687 97.8446 101.528 103.004 101.528 109.368H104.9ZM113.052 101.216V104.588C115.691 104.588 117.831 106.728 117.831 109.368H121.203H124.575C124.575 103.004 119.416 97.8446 113.052 97.8446V101.216ZM121.203 109.368H117.831C117.831 112.008 115.691 114.148 113.052 114.148V117.52V120.891C119.416 120.891 124.575 115.732 124.575 109.368H121.203ZM113.052 117.52V114.148C110.412 114.148 108.272 112.008 108.272 109.368H104.9H101.528C101.528 115.732 106.687 120.891 113.052 120.891V117.52Z" mask="url(#path-13-inside-5_1007_4022)"/></clipPath><linearGradient id="paint0_diamond_1007_4022" x1="0" y1="0" x2="500" y2="500" gradientUnits="userSpaceOnUse">
<stop stop-color="white"/>
<stop offset="0.120192" stop-color="white"/>
<stop offset="1" stop-color="white"/>
</linearGradient>
<linearGradient id="paint1_diamond_1007_4022" x1="0" y1="0" x2="500" y2="500" gradientUnits="userSpaceOnUse">
<stop stop-color="white"/>
<stop offset="0.120192" stop-color="white"/>
<stop offset="1" stop-color="white"/>
</linearGradient>
<linearGradient id="paint2_diamond_1007_4022" x1="0" y1="0" x2="500" y2="500" gradientUnits="userSpaceOnUse">
<stop stop-color="white"/>
<stop offset="0.120192" stop-color="white"/>
<stop offset="1" stop-color="white"/>
</linearGradient>
<linearGradient id="paint3_diamond_1007_4022" x1="0" y1="0" x2="500" y2="500" gradientUnits="userSpaceOnUse">
<stop stop-color="white"/>
<stop offset="0.120192" stop-color="white"/>
<stop offset="1" stop-color="white"/>
</linearGradient>
<linearGradient id="paint4_diamond_1007_4022" x1="0" y1="0" x2="500" y2="500" gradientUnits="userSpaceOnUse">
<stop stop-color="white"/>
<stop offset="0.120192" stop-color="white"/>
<stop offset="1" stop-color="white"/>
</linearGradient>
</defs>
</svg>
