<svg width="420" height="119" viewBox="0 0 420 119" fill="none" xmlns="http://www.w3.org/2000/svg">
<path d="M0.34375 17.4414V13.2422L21.1445 1.03516H26.7109L50.1484 48.2031L55.1289 45.7617V30.0391C55.1289 26.1328 54.4453 23.1055 53.0781 20.957C51.776 18.7435 50.474 17.4089 49.1719 16.9531L46.9258 16.5625V12.168L66.1641 0.839844C66.8802 0.839844 68.1823 1.55599 70.0703 2.98828C72.0234 4.42057 73.8464 6.14583 75.5391 8.16406C77.2969 10.1172 78.1758 12.0052 78.1758 13.8281V44.9805C78.1758 47.194 70.4284 51.0677 54.9336 56.6016L75.1484 94.1992C76.9062 96.9987 80.5195 98.3984 85.9883 98.3984V102.793L64.1133 115H58.5469L33.3516 64.4141L27.9805 66.9531V85.8008C27.9805 89.6419 28.6315 92.6693 29.9336 94.8828C31.3008 97.0964 32.6354 98.3333 33.9375 98.5938L36.1836 99.1797V103.574L16.9453 115C16.2943 115 14.9922 114.284 13.0391 112.852C11.0859 111.419 9.23047 109.694 7.47266 107.676C5.77995 105.658 4.93359 103.77 4.93359 102.012V67.832C4.93359 65.6836 12.8763 61.6797 28.7617 55.8203L13.1367 23.9844C11.7695 20.9245 9.97917 19.069 7.76562 18.418C5.61719 17.7669 3.14323 17.4414 0.34375 17.4414ZM155.031 109.531C151.385 111.771 147.635 113.646 143.781 115.156C139.979 116.667 135.161 117.422 129.328 117.422C121.724 117.422 115.708 115.156 111.281 110.625C106.854 106.094 104.641 99.8177 104.641 91.7969V44.6094H88.4688V41.0938C88.4688 38.75 88.9635 37.1615 89.9531 36.3281C90.9948 35.4427 92.6354 35 94.875 35H104.641V16.4062C104.641 13.5417 105.5 11.6146 107.219 10.625C108.938 9.58333 111.125 9.0625 113.781 9.0625C115.448 9.0625 117.375 9.27083 119.562 9.6875C121.75 10.0521 123.547 10.651 124.953 11.4844C124.641 12.9427 124.198 15.4688 123.625 19.0625C123.052 22.6562 122.766 27.9688 122.766 35H149.953V38.3594C149.953 40.651 149.432 42.2656 148.391 43.2031C147.401 44.1406 145.786 44.6094 143.547 44.6094H122.766V90.3906C122.766 102.214 127.089 108.125 135.734 108.125C138.339 108.125 140.943 107.76 143.547 107.031C146.151 106.302 148.312 105.599 150.031 104.922C151.75 104.245 152.583 103.984 152.531 104.141L155.031 109.531ZM163.391 75C163.391 66.7188 165.135 59.401 168.625 53.0469C172.167 46.6406 177.219 41.6406 183.781 38.0469C190.396 34.401 198.312 32.5781 207.531 32.5781C214.458 32.5781 220.396 34.0104 225.344 36.875C230.344 39.7396 234.172 43.4896 236.828 48.125C239.484 52.7604 240.812 57.7604 240.812 63.125C240.812 65.5729 240.5 68.0208 239.875 70.4688C239.25 72.9167 238.052 74.9479 236.281 76.5625C234.562 78.1771 231.958 78.9844 228.469 78.9844H181.75C182.792 88.3594 186.49 95.5469 192.844 100.547C199.198 105.495 206.958 107.969 216.125 107.969C222.531 107.969 229.198 106.849 236.125 104.609L238.703 109.844C234.484 112.708 229.667 114.792 224.25 116.094C218.833 117.396 213.521 118.047 208.312 118.047C202.583 118.047 197.036 117.135 191.672 115.312C186.307 113.542 181.49 110.859 177.219 107.266C173 103.672 169.641 99.1927 167.141 93.8281C164.641 88.4635 163.391 82.1875 163.391 75ZM222.062 69.375C222.375 68.3333 222.583 67.2917 222.688 66.25C222.792 65.2083 222.844 64.1146 222.844 62.9688C222.844 59.5312 222.089 56.1458 220.578 52.8125C219.12 49.4792 216.932 46.7188 214.016 44.5312C211.151 42.3438 207.609 41.25 203.391 41.25C198.078 41.25 193.859 42.5781 190.734 45.2344C187.661 47.8385 185.422 51.276 184.016 55.5469C182.661 59.8177 181.854 64.4271 181.594 69.375H222.062ZM254.953 37.1094C256.411 36.4323 258.599 35.8594 261.516 35.3906C264.432 34.9219 267.583 34.5573 270.969 34.2969C274.354 34.0365 277.401 33.9062 280.109 33.9062C282.245 33.9062 283.885 34.0885 285.031 34.4531C286.229 34.7656 286.828 35.9635 286.828 38.0469V56.7969L296.75 42.6562C301.438 35.9375 307.661 32.5781 315.422 32.5781C316.359 32.5781 317.557 32.6823 319.016 32.8906C320.526 33.0469 321.88 33.4375 323.078 34.0625C324.276 34.6875 324.875 35.651 324.875 36.9531C324.875 37.474 324.823 37.8906 324.719 38.2031L321.359 49.2188C319.38 48.5938 317.583 48.151 315.969 47.8906C314.406 47.6302 312.948 47.5 311.594 47.5C308.781 47.5 306.099 48.2812 303.547 49.8438C300.995 51.4062 298.651 53.3073 296.516 55.5469C294.38 57.7865 292.479 60 290.812 62.1875C289.198 64.3229 287.87 65.9896 286.828 67.1875V91.4844C286.828 97.8906 287.115 102.865 287.688 106.406C288.26 109.948 288.703 112.448 289.016 113.906C287.609 114.688 285.812 115.286 283.625 115.703C281.438 116.172 279.51 116.406 277.844 116.406C275.188 116.406 273 115.885 271.281 114.844C269.562 113.75 268.703 111.771 268.703 108.906V42.9688H254.953V37.1094ZM387.922 108.125C387.922 108.073 387.167 108.516 385.656 109.453C384.198 110.391 382.193 111.484 379.641 112.734C377.141 113.984 374.354 115.078 371.281 116.016C368.208 116.953 365.057 117.422 361.828 117.422C357.297 117.422 353.104 116.615 349.25 115C345.396 113.333 342.297 110.781 339.953 107.344C337.609 103.854 336.438 99.4271 336.438 94.0625C336.438 88.0729 338.156 83.2812 341.594 79.6875C345.083 76.0938 349.875 73.5156 355.969 71.9531C362.062 70.3385 369.042 69.5312 376.906 69.5312H387.922V63.6719C387.922 59.6094 387.661 55.8333 387.141 52.3438C386.62 48.8542 385.474 46.0677 383.703 43.9844C381.984 41.849 379.276 40.7812 375.578 40.7812C372.089 40.7812 368.547 41.5885 364.953 43.2031C361.411 44.8177 358.026 46.7708 354.797 49.0625C351.568 51.3542 348.651 53.5417 346.047 55.625L339.641 47.0312C338.859 46.0938 338.469 45.1302 338.469 44.1406C338.469 42.4219 339.536 40.8594 341.672 39.4531C343.807 38.0469 346.542 36.8229 349.875 35.7812C353.208 34.7396 356.724 33.9583 360.422 33.4375C364.172 32.8646 367.635 32.5781 370.812 32.5781C377.219 32.5781 383.078 33.6198 388.391 35.7031C393.755 37.7344 398.026 41.0417 401.203 45.625C404.432 50.1562 406.047 56.1719 406.047 63.6719V107.188H419.641V113.047C417.87 114.036 414.953 114.844 410.891 115.469C406.828 116.094 402.896 116.406 399.094 116.406C396.542 116.406 394.068 115.964 391.672 115.078C389.328 114.245 388.078 112.188 387.922 108.906V108.125ZM367.297 105.859C369.12 105.859 371.203 105.625 373.547 105.156C375.891 104.688 378.156 104.141 380.344 103.516C382.531 102.839 384.328 102.266 385.734 101.797C387.193 101.328 387.922 101.094 387.922 101.094V79.1406H374.797C372.193 79.1406 369.276 79.5052 366.047 80.2344C362.87 80.9115 360.109 82.2656 357.766 84.2969C355.474 86.276 354.328 89.2448 354.328 93.2031C354.328 96.901 355.448 99.9479 357.688 102.344C359.927 104.688 363.13 105.859 367.297 105.859Z" fill="#3874FF"/>
</svg>
