<svg width="157" height="52" viewBox="0 0 157 52" fill="none" xmlns="http://www.w3.org/2000/svg">
<path d="M29.96 25.59L22.61 9.91L25.55 0.599998H38.85L29.96 25.59ZM0.98 0.599998H14.56L38.15 51H24.85L0.98 0.599998ZM9.94 27.48L17.15 42.46L13.86 51H0.63L9.94 27.48ZM38.7762 20.2V10.75H44.0262V1.93H56.6262V10.75H64.2562V20.2H38.7762ZM44.0262 23.07H56.6262V37.63C56.6262 38.9367 56.9528 39.8933 57.6062 40.5C58.3062 41.1067 59.4028 41.41 60.8962 41.41C61.6428 41.41 62.2962 41.3867 62.8562 41.34C63.4162 41.2467 63.8828 41.1533 64.2562 41.06V50.37C63.1362 50.7433 61.9462 51.0467 60.6862 51.28C59.4728 51.56 58.2362 51.7 56.9762 51.7C52.6828 51.7 49.4395 50.79 47.2462 48.97C45.0995 47.1033 44.0262 43.79 44.0262 39.03V23.07ZM85.505 51.7C82.7517 51.7 80.2317 51.3967 77.945 50.79C75.705 50.1833 73.7683 49.11 72.135 47.57C70.5017 46.03 69.2417 43.9067 68.355 41.2C67.4683 38.4933 67.025 35.04 67.025 30.84C67.025 24.3067 68.1917 19.3133 70.525 15.86C72.8583 12.36 76.615 10.47 81.795 10.19V20.48C80.7683 22.0667 80.255 25.45 80.255 30.63C80.255 33.6633 80.4883 35.9967 80.955 37.63C81.4217 39.2633 82.3083 40.3833 83.615 40.99C84.9683 41.5967 86.8817 41.9 89.355 41.9C90.4283 41.9 91.525 41.8067 92.645 41.62C93.8117 41.4333 94.9317 41.2233 96.005 40.99V50.51C94.3717 50.8367 92.645 51.1167 90.825 51.35C89.0517 51.5833 87.2783 51.7 85.505 51.7ZM83.755 34.76V26.99H86.065C86.065 25.9167 86.0183 24.7733 85.925 23.56C85.8783 22.3467 85.645 21.3433 85.225 20.55V10.26C89.6583 10.6333 92.855 12.2433 94.815 15.09C96.775 17.89 97.755 21.8567 97.755 26.99C97.755 28.2967 97.7083 29.65 97.615 31.05C97.5217 32.4033 97.3583 33.64 97.125 34.76H83.755ZM116.839 22.86V11.87C118.986 10.3767 121.693 9.93333 124.959 10.54V22.3C123.653 22.3 122.299 22.3467 120.899 22.44C119.546 22.5333 118.193 22.6733 116.839 22.86ZM114.179 51H101.579V10.75H112.289L114.179 16.14V51ZM143.467 23.49C143.467 22.1367 143.001 21.2267 142.067 20.76C141.134 20.2467 139.944 19.99 138.497 19.99C136.724 19.99 135.021 20.1533 133.387 20.48C131.754 20.8067 130.121 21.2733 128.487 21.88V12.08C130.587 11.6133 132.757 11.1933 134.997 10.82C137.284 10.4 139.571 10.19 141.857 10.19C144.424 10.19 146.781 10.5167 148.927 11.17C151.074 11.7767 152.801 12.8967 154.107 14.53C155.414 16.1633 156.067 18.4967 156.067 21.53V51H145.147L143.467 44.98V23.49ZM139.967 42.32V50.93C138.754 51.4433 137.447 51.7 136.047 51.7C134.181 51.7 132.431 51.2333 130.797 50.3C129.164 49.32 127.834 47.92 126.807 46.1C125.781 44.28 125.267 42.0867 125.267 39.52C125.267 35.6 126.621 32.6133 129.327 30.56C132.081 28.46 135.627 27.3867 139.967 27.34V34.76C139.221 35.0867 138.614 35.5533 138.147 36.16C137.727 36.72 137.517 37.4433 137.517 38.33C137.517 39.4033 137.751 40.29 138.217 40.99C138.684 41.6433 139.267 42.0867 139.967 42.32Z" fill="#3874FF"/>
</svg>
