<svg width="201" height="107" viewBox="0 0 201 107" fill="none" xmlns="http://www.w3.org/2000/svg">
<mask id="path-3-outside-1_1007_4000" maskUnits="userSpaceOnUse" x="4.76172" y="25.877" width="28" height="24" fill="black">
<rect fill="white" x="4.76172" y="25.877" width="28" height="24"/>
</mask>
<g clip-path="url(#paint0_diamond_1007_4000_clip_path)" data-figma-skip-parse="true" mask="url(#path-3-outside-1_1007_4000)"><g transform="matrix(0.0118613 0.00898585 -0.0105905 0.0559177 19.623 39.0194)"><rect x="0" y="0" width="1293.19" height="397.259" fill="url(#paint0_diamond_1007_4000)" opacity="1" shape-rendering="crispEdges"/><rect x="0" y="0" width="1293.19" height="397.259" transform="scale(1 -1)" fill="url(#paint0_diamond_1007_4000)" opacity="1" shape-rendering="crispEdges"/><rect x="0" y="0" width="1293.19" height="397.259" transform="scale(-1 1)" fill="url(#paint0_diamond_1007_4000)" opacity="1" shape-rendering="crispEdges"/><rect x="0" y="0" width="1293.19" height="397.259" transform="scale(-1)" fill="url(#paint0_diamond_1007_4000)" opacity="1" shape-rendering="crispEdges"/></g></g><path d="M7.76172 27.877V26.377H4.77016L6.55969 28.7742L7.76172 27.877ZM15.6693 27.877L16.8487 26.9502L16.3983 26.377H15.6693V27.877ZM7.76172 27.877V29.377H15.6693V27.877V26.377H7.76172V27.877ZM15.6693 27.877L14.4898 28.8037L30.3049 48.932L31.4844 48.0053L32.6639 47.0785L16.8487 26.9502L15.6693 27.877ZM7.76172 27.877L6.55969 28.7742L19.2597 45.7875L20.4617 44.8902L21.6638 43.9929L8.96375 26.9797L7.76172 27.877Z" data-figma-gradient-fill="{&#34;type&#34;:&#34;GRADIENT_DIAMOND&#34;,&#34;stops&#34;:[{&#34;color&#34;:{&#34;r&#34;:0.066666670143604279,&#34;g&#34;:0.20000000298023224,&#34;b&#34;:0.33333334326744080,&#34;a&#34;:0.87058824300765991},&#34;position&#34;:0.0},{&#34;color&#34;:{&#34;r&#34;:0.21960784494876862,&#34;g&#34;:0.45490196347236633,&#34;b&#34;:1.0,&#34;a&#34;:0.93529415130615234},&#34;position&#34;:0.12019230425357819},{&#34;color&#34;:{&#34;r&#34;:0.38823530077934265,&#34;g&#34;:0.40000000596046448,&#34;b&#34;:0.94509804248809814,&#34;a&#34;:1.0},&#34;position&#34;:1.0}],&#34;stopsVar&#34;:[{&#34;color&#34;:{&#34;r&#34;:0.066666670143604279,&#34;g&#34;:0.20000000298023224,&#34;b&#34;:0.33333334326744080,&#34;a&#34;:0.87058824300765991},&#34;position&#34;:0.0},{&#34;color&#34;:{&#34;r&#34;:0.21960784494876862,&#34;g&#34;:0.45490196347236633,&#34;b&#34;:1.0,&#34;a&#34;:0.93529415130615234},&#34;position&#34;:0.12019230425357819},{&#34;color&#34;:{&#34;r&#34;:0.38823530077934265,&#34;g&#34;:0.40000000596046448,&#34;b&#34;:0.94509804248809814,&#34;a&#34;:1.0},&#34;position&#34;:1.0}],&#34;transform&#34;:{&#34;m00&#34;:23.722656250,&#34;m01&#34;:-21.180942535400391,&#34;m02&#34;:18.352190017700195,&#34;m10&#34;:17.971706390380859,&#34;m11&#34;:111.83535766601562,&#34;m12&#34;:-25.884120941162109},&#34;opacity&#34;:1.0,&#34;blendMode&#34;:&#34;NORMAL&#34;,&#34;visible&#34;:true}" mask="url(#path-3-outside-1_1007_4000)"/>
<mask id="path-5-inside-2_1007_4000" fill="white">
<path d="M26.6925 47.7569C26.6925 50.4272 24.5278 52.5919 21.8575 52.5919C19.1872 52.5919 17.0225 50.4272 17.0225 47.7569C17.0225 45.0866 19.1872 42.9219 21.8575 42.9219C24.5278 42.9219 26.6925 45.0866 26.6925 47.7569Z"/>
</mask>
<g clip-path="url(#paint1_diamond_1007_4000_clip_path)" data-figma-skip-parse="true" mask="url(#path-5-inside-2_1007_4000)"><g transform="matrix(0.004835 0.00431696 -0.00431696 0.0268639 21.8575 48.2749)"><rect x="0" y="0" width="1449.99" height="438.036" fill="url(#paint1_diamond_1007_4000)" opacity="1" shape-rendering="crispEdges"/><rect x="0" y="0" width="1449.99" height="438.036" transform="scale(1 -1)" fill="url(#paint1_diamond_1007_4000)" opacity="1" shape-rendering="crispEdges"/><rect x="0" y="0" width="1449.99" height="438.036" transform="scale(-1 1)" fill="url(#paint1_diamond_1007_4000)" opacity="1" shape-rendering="crispEdges"/><rect x="0" y="0" width="1449.99" height="438.036" transform="scale(-1)" fill="url(#paint1_diamond_1007_4000)" opacity="1" shape-rendering="crispEdges"/></g></g><path d="M26.6925 47.7569H24.6925C24.6925 49.3226 23.4232 50.5919 21.8575 50.5919V52.5919V54.5919C25.6323 54.5919 28.6925 51.5317 28.6925 47.7569H26.6925ZM21.8575 52.5919V50.5919C20.2917 50.5919 19.0225 49.3226 19.0225 47.7569H17.0225H15.0225C15.0225 51.5317 18.0826 54.5919 21.8575 54.5919V52.5919ZM17.0225 47.7569H19.0225C19.0225 46.1911 20.2917 44.9219 21.8575 44.9219V42.9219V40.9219C18.0826 40.9219 15.0225 43.982 15.0225 47.7569H17.0225ZM21.8575 42.9219V44.9219C23.4232 44.9219 24.6925 46.1911 24.6925 47.7569H26.6925H28.6925C28.6925 43.982 25.6323 40.9219 21.8575 40.9219V42.9219Z" data-figma-gradient-fill="{&#34;type&#34;:&#34;GRADIENT_DIAMOND&#34;,&#34;stops&#34;:[{&#34;color&#34;:{&#34;r&#34;:0.066666670143604279,&#34;g&#34;:0.20000000298023224,&#34;b&#34;:0.33333334326744080,&#34;a&#34;:0.87058824300765991},&#34;position&#34;:0.0},{&#34;color&#34;:{&#34;r&#34;:0.21960784494876862,&#34;g&#34;:0.45490196347236633,&#34;b&#34;:1.0,&#34;a&#34;:0.93529415130615234},&#34;position&#34;:0.12019230425357819},{&#34;color&#34;:{&#34;r&#34;:0.38823530077934265,&#34;g&#34;:0.40000000596046448,&#34;b&#34;:0.94509804248809814,&#34;a&#34;:1.0},&#34;position&#34;:1.0}],&#34;stopsVar&#34;:[{&#34;color&#34;:{&#34;r&#34;:0.066666670143604279,&#34;g&#34;:0.20000000298023224,&#34;b&#34;:0.33333334326744080,&#34;a&#34;:0.87058824300765991},&#34;position&#34;:0.0},{&#34;color&#34;:{&#34;r&#34;:0.21960784494876862,&#34;g&#34;:0.45490196347236633,&#34;b&#34;:1.0,&#34;a&#34;:0.93529415130615234},&#34;position&#34;:0.12019230425357819},{&#34;color&#34;:{&#34;r&#34;:0.38823530077934265,&#34;g&#34;:0.40000000596046448,&#34;b&#34;:0.94509804248809814,&#34;a&#34;:1.0},&#34;position&#34;:1.0}],&#34;transform&#34;:{&#34;m00&#34;:9.6700000762939453,&#34;m01&#34;:-8.6339282989501953,&#34;m02&#34;:21.339424133300781,&#34;m10&#34;:8.6339292526245117,&#34;m11&#34;:53.727706909179688,&#34;m12&#34;:17.094093322753906},&#34;opacity&#34;:1.0,&#34;blendMode&#34;:&#34;NORMAL&#34;,&#34;visible&#34;:true}" mask="url(#path-5-inside-2_1007_4000)"/>
<g filter="url(#filter0_d_1007_4000)">
<mask id="path-7-outside-3_1007_4000" maskUnits="userSpaceOnUse" x="0.524419" y="15.338" width="64.0684" height="76.2739" fill="black">
<rect fill="white" x="0.524419" y="15.338" width="64.0684" height="76.2739"/>
<path d="M48.2032 27.696L57.2302 27.6938L16.8093 79.4477L8.18577 79.4499L48.2032 27.696Z"/>
</mask>
<g clip-path="url(#paint2_diamond_1007_4000_clip_path)" data-figma-skip-parse="true" mask="url(#path-7-outside-3_1007_4000)"><g transform="matrix(-0.0166615 0.027182 -0.123666 0.153583 30.279 56.499)"><rect x="0" y="0" width="1778.95" height="446.531" fill="url(#paint2_diamond_1007_4000)" opacity="1" shape-rendering="crispEdges"/><rect x="0" y="0" width="1778.95" height="446.531" transform="scale(1 -1)" fill="url(#paint2_diamond_1007_4000)" opacity="1" shape-rendering="crispEdges"/><rect x="0" y="0" width="1778.95" height="446.531" transform="scale(-1 1)" fill="url(#paint2_diamond_1007_4000)" opacity="1" shape-rendering="crispEdges"/><rect x="0" y="0" width="1778.95" height="446.531" transform="scale(-1)" fill="url(#paint2_diamond_1007_4000)" opacity="1" shape-rendering="crispEdges"/></g></g><path d="M48.2032 27.696L48.2025 24.696L46.7304 24.6964L45.8299 25.8609L48.2032 27.696ZM57.2302 27.6938L59.5945 29.5404L63.381 24.6923L57.2295 24.6938L57.2302 27.6938ZM16.8093 79.4477L16.8101 82.4477L18.2731 82.4473L19.1737 81.2943L16.8093 79.4477ZM8.18577 79.4499L5.81249 77.6148L2.07266 82.4515L8.18654 82.4499L8.18577 79.4499ZM48.2032 27.696L48.2039 30.696L57.2309 30.6938L57.2302 27.6938L57.2295 24.6938L48.2025 24.696L48.2032 27.696ZM57.2302 27.6938L54.8659 25.8472L14.445 77.6011L16.8093 79.4477L19.1737 81.2943L59.5945 29.5404L57.2302 27.6938ZM16.8093 79.4477L16.8086 76.4477L8.18499 76.4499L8.18577 79.4499L8.18654 82.4499L16.8101 82.4477L16.8093 79.4477ZM8.18577 79.4499L10.5591 81.285L50.5765 29.5311L48.2032 27.696L45.8299 25.8609L5.81249 77.6148L8.18577 79.4499Z" data-figma-gradient-fill="{&#34;type&#34;:&#34;GRADIENT_DIAMOND&#34;,&#34;stops&#34;:[{&#34;color&#34;:{&#34;r&#34;:0.066666670143604279,&#34;g&#34;:0.20000000298023224,&#34;b&#34;:0.33333334326744080,&#34;a&#34;:0.87058824300765991},&#34;position&#34;:0.0},{&#34;color&#34;:{&#34;r&#34;:0.21960784494876862,&#34;g&#34;:0.45490196347236633,&#34;b&#34;:1.0,&#34;a&#34;:0.93529415130615234},&#34;position&#34;:0.12019230425357819},{&#34;color&#34;:{&#34;r&#34;:0.38823530077934265,&#34;g&#34;:0.40000000596046448,&#34;b&#34;:0.94509804248809814,&#34;a&#34;:1.0},&#34;position&#34;:1.0}],&#34;stopsVar&#34;:[{&#34;color&#34;:{&#34;r&#34;:0.066666670143604279,&#34;g&#34;:0.20000000298023224,&#34;b&#34;:0.33333334326744080,&#34;a&#34;:0.87058824300765991},&#34;position&#34;:0.0},{&#34;color&#34;:{&#34;r&#34;:0.21960784494876862,&#34;g&#34;:0.45490196347236633,&#34;b&#34;:1.0,&#34;a&#34;:0.93529415130615234},&#34;position&#34;:0.12019230425357819},{&#34;color&#34;:{&#34;r&#34;:0.38823530077934265,&#34;g&#34;:0.40000000596046448,&#34;b&#34;:0.94509804248809814,&#34;a&#34;:1.0},&#34;position&#34;:1.0}],&#34;transform&#34;:{&#34;m00&#34;:-33.323017120361328,&#34;m01&#34;:-247.33280944824219,&#34;m02&#34;:170.60688781738281,&#34;m10&#34;:54.364089965820312,&#34;m11&#34;:307.165527343750,&#34;m12&#34;:-124.26576232910156},&#34;opacity&#34;:1.0,&#34;blendMode&#34;:&#34;NORMAL&#34;,&#34;visible&#34;:true}" mask="url(#path-7-outside-3_1007_4000)"/>
</g>
<mask id="path-10-outside-4_1007_4000" maskUnits="userSpaceOnUse" x="32.125" y="59.3887" width="28" height="24" fill="black">
<rect fill="white" x="32.125" y="59.3887" width="28" height="24"/>
</mask>
<g clip-path="url(#paint3_diamond_1007_4000_clip_path)" data-figma-skip-parse="true" mask="url(#path-10-outside-4_1007_4000)"><g transform="matrix(-0.0118613 -0.00898585 0.0105905 -0.0559177 45.2637 70.2462)"><rect x="0" y="0" width="1293.19" height="397.259" fill="url(#paint3_diamond_1007_4000)" opacity="1" shape-rendering="crispEdges"/><rect x="0" y="0" width="1293.19" height="397.259" transform="scale(1 -1)" fill="url(#paint3_diamond_1007_4000)" opacity="1" shape-rendering="crispEdges"/><rect x="0" y="0" width="1293.19" height="397.259" transform="scale(-1 1)" fill="url(#paint3_diamond_1007_4000)" opacity="1" shape-rendering="crispEdges"/><rect x="0" y="0" width="1293.19" height="397.259" transform="scale(-1)" fill="url(#paint3_diamond_1007_4000)" opacity="1" shape-rendering="crispEdges"/></g></g><path d="M57.125 81.3887V82.8887H60.1166L58.327 80.4914L57.125 81.3887ZM49.2174 81.3887L48.038 82.3154L48.4884 82.8887H49.2174V81.3887ZM57.125 81.3887V79.8887H49.2174V81.3887V82.8887H57.125V81.3887ZM49.2174 81.3887L50.3969 80.4619L34.5818 60.3336L33.4023 61.2604L32.2229 62.1871L48.038 82.3154L49.2174 81.3887ZM57.125 81.3887L58.327 80.4914L45.627 63.4782L44.425 64.3755L43.223 65.2727L55.923 82.286L57.125 81.3887Z" data-figma-gradient-fill="{&#34;type&#34;:&#34;GRADIENT_DIAMOND&#34;,&#34;stops&#34;:[{&#34;color&#34;:{&#34;r&#34;:0.066666670143604279,&#34;g&#34;:0.20000000298023224,&#34;b&#34;:0.33333334326744080,&#34;a&#34;:0.87058824300765991},&#34;position&#34;:0.0},{&#34;color&#34;:{&#34;r&#34;:0.21960784494876862,&#34;g&#34;:0.45490196347236633,&#34;b&#34;:1.0,&#34;a&#34;:0.93529415130615234},&#34;position&#34;:0.12019230425357819},{&#34;color&#34;:{&#34;r&#34;:0.38823530077934265,&#34;g&#34;:0.40000000596046448,&#34;b&#34;:0.94509804248809814,&#34;a&#34;:1.0},&#34;position&#34;:1.0}],&#34;stopsVar&#34;:[{&#34;color&#34;:{&#34;r&#34;:0.066666670143604279,&#34;g&#34;:0.20000000298023224,&#34;b&#34;:0.33333334326744080,&#34;a&#34;:0.87058824300765991},&#34;position&#34;:0.0},{&#34;color&#34;:{&#34;r&#34;:0.21960784494876862,&#34;g&#34;:0.45490196347236633,&#34;b&#34;:1.0,&#34;a&#34;:0.93529415130615234},&#34;position&#34;:0.12019230425357819},{&#34;color&#34;:{&#34;r&#34;:0.38823530077934265,&#34;g&#34;:0.40000000596046448,&#34;b&#34;:0.94509804248809814,&#34;a&#34;:1.0},&#34;position&#34;:1.0}],&#34;transform&#34;:{&#34;m00&#34;:-23.722656250,&#34;m01&#34;:21.180942535400391,&#34;m02&#34;:46.534530639648438,&#34;m10&#34;:-17.971706390380859,&#34;m11&#34;:-111.83535766601562,&#34;m12&#34;:135.14974975585938},&#34;opacity&#34;:1.0,&#34;blendMode&#34;:&#34;NORMAL&#34;,&#34;visible&#34;:true}" mask="url(#path-10-outside-4_1007_4000)"/>
<mask id="path-12-inside-5_1007_4000" fill="white">
<path d="M38.1923 61.499C38.1923 58.8287 40.357 56.664 43.0273 56.664C45.6976 56.664 47.8623 58.8287 47.8623 61.499C47.8623 64.1693 45.6976 66.334 43.0273 66.334C40.357 66.334 38.1923 64.1693 38.1923 61.499Z"/>
</mask>
<g clip-path="url(#paint4_diamond_1007_4000_clip_path)" data-figma-skip-parse="true" mask="url(#path-12-inside-5_1007_4000)"><g transform="matrix(-0.004835 -0.00431696 0.00431696 -0.0268639 43.0273 60.9809)"><rect x="0" y="0" width="1449.99" height="438.036" fill="url(#paint4_diamond_1007_4000)" opacity="1" shape-rendering="crispEdges"/><rect x="0" y="0" width="1449.99" height="438.036" transform="scale(1 -1)" fill="url(#paint4_diamond_1007_4000)" opacity="1" shape-rendering="crispEdges"/><rect x="0" y="0" width="1449.99" height="438.036" transform="scale(-1 1)" fill="url(#paint4_diamond_1007_4000)" opacity="1" shape-rendering="crispEdges"/><rect x="0" y="0" width="1449.99" height="438.036" transform="scale(-1)" fill="url(#paint4_diamond_1007_4000)" opacity="1" shape-rendering="crispEdges"/></g></g><path d="M38.1923 61.499H40.1923C40.1923 59.9333 41.4616 58.664 43.0273 58.664V56.664V54.664C39.2524 54.664 36.1923 57.7241 36.1923 61.499H38.1923ZM43.0273 56.664V58.664C44.593 58.664 45.8623 59.9333 45.8623 61.499H47.8623H49.8623C49.8623 57.7241 46.8022 54.664 43.0273 54.664V56.664ZM47.8623 61.499H45.8623C45.8623 63.0647 44.593 64.334 43.0273 64.334V66.334V68.334C46.8022 68.334 49.8623 65.2739 49.8623 61.499H47.8623ZM43.0273 66.334V64.334C41.4616 64.334 40.1923 63.0647 40.1923 61.499H38.1923H36.1923C36.1923 65.2739 39.2524 68.334 43.0273 68.334V66.334Z" data-figma-gradient-fill="{&#34;type&#34;:&#34;GRADIENT_DIAMOND&#34;,&#34;stops&#34;:[{&#34;color&#34;:{&#34;r&#34;:0.066666670143604279,&#34;g&#34;:0.20000000298023224,&#34;b&#34;:0.33333334326744080,&#34;a&#34;:0.87058824300765991},&#34;position&#34;:0.0},{&#34;color&#34;:{&#34;r&#34;:0.21960784494876862,&#34;g&#34;:0.45490196347236633,&#34;b&#34;:1.0,&#34;a&#34;:0.93529415130615234},&#34;position&#34;:0.12019230425357819},{&#34;color&#34;:{&#34;r&#34;:0.38823530077934265,&#34;g&#34;:0.40000000596046448,&#34;b&#34;:0.94509804248809814,&#34;a&#34;:1.0},&#34;position&#34;:1.0}],&#34;stopsVar&#34;:[{&#34;color&#34;:{&#34;r&#34;:0.066666670143604279,&#34;g&#34;:0.20000000298023224,&#34;b&#34;:0.33333334326744080,&#34;a&#34;:0.87058824300765991},&#34;position&#34;:0.0},{&#34;color&#34;:{&#34;r&#34;:0.21960784494876862,&#34;g&#34;:0.45490196347236633,&#34;b&#34;:1.0,&#34;a&#34;:0.93529415130615234},&#34;position&#34;:0.12019230425357819},{&#34;color&#34;:{&#34;r&#34;:0.38823530077934265,&#34;g&#34;:0.40000000596046448,&#34;b&#34;:0.94509804248809814,&#34;a&#34;:1.0},&#34;position&#34;:1.0}],&#34;transform&#34;:{&#34;m00&#34;:-9.6700000762939453,&#34;m01&#34;:8.6339282989501953,&#34;m02&#34;:43.545341491699219,&#34;m10&#34;:-8.6339292526245117,&#34;m11&#34;:-53.727706909179688,&#34;m12&#34;:92.161766052246094},&#34;opacity&#34;:1.0,&#34;blendMode&#34;:&#34;NORMAL&#34;,&#34;visible&#34;:true}" mask="url(#path-12-inside-5_1007_4000)"/>
<g clip-path="url(#paint5_diamond_1007_4000_clip_path)" data-figma-skip-parse="true"><g transform="matrix(0.0715 0.0477679 -0.0638393 0.297253 128.733 59.2322)"><rect x="0" y="0" width="1030.11" height="314.796" fill="url(#paint5_diamond_1007_4000)" opacity="1" shape-rendering="crispEdges"/><rect x="0" y="0" width="1030.11" height="314.796" transform="scale(1 -1)" fill="url(#paint5_diamond_1007_4000)" opacity="1" shape-rendering="crispEdges"/><rect x="0" y="0" width="1030.11" height="314.796" transform="scale(-1 1)" fill="url(#paint5_diamond_1007_4000)" opacity="1" shape-rendering="crispEdges"/><rect x="0" y="0" width="1030.11" height="314.796" transform="scale(-1)" fill="url(#paint5_diamond_1007_4000)" opacity="1" shape-rendering="crispEdges"/></g></g><path d="M79.804 79.7666C76.4819 79.7666 73.6966 79.2044 71.4478 78.0801C69.2501 76.9557 67.6147 75.3202 66.5414 73.1737C65.4681 70.976 64.9315 68.2673 64.9315 65.0475V48.7184H60.9451C59.7185 48.7184 58.773 48.4117 58.1085 47.7984C57.4441 47.134 57.1119 46.2396 57.1119 45.1153C57.1119 43.9398 57.4441 43.0454 58.1085 42.4321C58.773 41.8188 59.7185 41.5121 60.9451 41.5121H64.9315V34.5359C64.9315 32.9515 65.3404 31.7505 66.1581 30.9327C67.0269 30.115 68.228 29.7061 69.7612 29.7061C71.2945 29.7061 72.47 30.115 73.2877 30.9327C74.1054 31.7505 74.5143 32.9515 74.5143 34.5359V41.5121H82.6405C83.8671 41.5121 84.8126 41.8188 85.477 42.4321C86.1414 43.0454 86.4736 43.9398 86.4736 45.1153C86.4736 46.2396 86.1414 47.134 85.477 47.7984C84.8126 48.4117 83.8671 48.7184 82.6405 48.7184H74.5143V64.5108C74.5143 66.964 75.0509 68.8039 76.1242 70.0305C77.1975 71.2571 78.9351 71.8704 81.3372 71.8704C82.2061 71.8704 82.9727 71.7937 83.6371 71.6404C84.3015 71.4871 84.8893 71.3849 85.4003 71.3338C86.0136 71.2827 86.5247 71.4871 86.9336 71.9471C87.3424 72.3559 87.5469 73.2248 87.5469 74.5536C87.5469 75.5758 87.368 76.4957 87.0102 77.3134C86.7036 78.0801 86.1158 78.6167 85.247 78.9233C84.5826 79.1278 83.7138 79.3066 82.6405 79.46C81.5672 79.6644 80.6217 79.7666 79.804 79.7666ZM110.155 79.7666C105.913 79.7666 102.259 78.9744 99.1924 77.3901C96.1259 75.8057 93.7493 73.557 92.0628 70.6438C90.4273 67.7306 89.6096 64.2808 89.6096 60.2944C89.6096 56.4102 90.4017 53.0115 91.9861 50.0983C93.6216 47.1851 95.8448 44.9108 98.6557 43.2754C101.518 41.5888 104.763 40.7455 108.392 40.7455C111.049 40.7455 113.426 41.1799 115.521 42.0488C117.668 42.9176 119.482 44.1698 120.964 45.8052C122.498 47.4407 123.648 49.4339 124.414 51.7849C125.232 54.0847 125.641 56.6913 125.641 59.6044C125.641 60.5244 125.309 61.2399 124.644 61.751C124.031 62.211 123.137 62.4409 121.961 62.4409H97.3525V56.9213H118.895L117.668 58.0712C117.668 55.7202 117.31 53.7525 116.595 52.1682C115.93 50.5838 114.934 49.3828 113.605 48.5651C112.327 47.6962 110.717 47.2618 108.775 47.2618C106.629 47.2618 104.789 47.7729 103.255 48.795C101.773 49.7661 100.623 51.1716 99.8057 53.0115C99.039 54.8003 98.6557 56.9468 98.6557 59.4511V59.9877C98.6557 64.1786 99.6268 67.3218 101.569 69.4172C103.562 71.4615 106.475 72.4837 110.308 72.4837C111.637 72.4837 113.119 72.3304 114.755 72.0237C116.441 71.666 118.026 71.0782 119.508 70.2605C120.581 69.6472 121.527 69.3917 122.344 69.4939C123.162 69.545 123.801 69.8261 124.261 70.3372C124.772 70.8482 125.079 71.4871 125.181 72.2537C125.283 72.9692 125.13 73.7103 124.721 74.4769C124.363 75.2435 123.724 75.908 122.804 76.4701C121.016 77.5945 118.946 78.4378 116.595 79C114.295 79.5111 112.148 79.7666 110.155 79.7666ZM138.136 79.6133C136.552 79.6133 135.325 79.2044 134.456 78.3867C133.639 77.5179 133.23 76.2913 133.23 74.7069V45.7286C133.23 44.1442 133.639 42.9432 134.456 42.1254C135.274 41.3077 136.424 40.8988 137.906 40.8988C139.388 40.8988 140.538 41.3077 141.356 42.1254C142.174 42.9432 142.583 44.1442 142.583 45.7286V50.5583H141.816C142.532 47.4918 143.937 45.1664 146.032 43.582C148.128 41.9977 150.913 41.0522 154.389 40.7455C155.462 40.6433 156.305 40.9244 156.918 41.5888C157.583 42.2021 157.966 43.1731 158.068 44.502C158.171 45.7797 157.864 46.8274 157.148 47.6451C156.484 48.4117 155.462 48.8717 154.082 49.025L152.395 49.1784C149.278 49.485 146.927 50.4561 145.342 52.0915C143.758 53.6759 142.966 55.9246 142.966 58.8378V74.7069C142.966 76.2913 142.557 77.5179 141.739 78.3867C140.922 79.2044 139.721 79.6133 138.136 79.6133ZM175.219 79.7666C172.51 79.7666 170.083 79.2555 167.936 78.2334C165.841 77.1601 164.18 75.7291 162.953 73.9403C161.778 72.1515 161.19 70.1327 161.19 67.884C161.19 65.1241 161.906 62.952 163.337 61.3677C164.768 59.7322 167.093 58.5567 170.313 57.8412C173.533 57.1257 177.851 56.7679 183.269 56.7679H187.102V62.2876H183.345C180.177 62.2876 177.647 62.4409 175.756 62.7476C173.865 63.0542 172.51 63.5909 171.693 64.3575C170.926 65.073 170.543 66.0952 170.543 67.424C170.543 69.1106 171.131 70.4905 172.306 71.5638C173.482 72.637 175.117 73.1737 177.212 73.1737C178.899 73.1737 180.381 72.7904 181.659 72.0237C182.988 71.206 184.035 70.1072 184.802 68.7273C185.569 67.3473 185.952 65.763 185.952 63.9742V55.158C185.952 52.6026 185.39 50.7627 184.265 49.6383C183.141 48.514 181.25 47.9518 178.592 47.9518C177.11 47.9518 175.5 48.1306 173.763 48.4884C172.076 48.8462 170.287 49.4595 168.396 50.3283C167.425 50.7883 166.556 50.916 165.79 50.7116C165.074 50.5072 164.512 50.0983 164.103 49.485C163.694 48.8206 163.49 48.1051 163.49 47.3385C163.49 46.5718 163.694 45.8308 164.103 45.1153C164.512 44.3486 165.202 43.7864 166.173 43.4287C168.524 42.4576 170.773 41.7677 172.919 41.3588C175.117 40.9499 177.11 40.7455 178.899 40.7455C182.579 40.7455 185.594 41.3077 187.945 42.4321C190.347 43.5565 192.136 45.2686 193.312 47.5685C194.487 49.8172 195.075 52.7304 195.075 56.308V74.7069C195.075 76.2913 194.691 77.5179 193.925 78.3867C193.158 79.2044 192.059 79.6133 190.628 79.6133C189.197 79.6133 188.073 79.2044 187.255 78.3867C186.489 77.5179 186.105 76.2913 186.105 74.7069V71.0271H186.719C186.361 72.8159 185.645 74.3747 184.572 75.7035C183.55 76.9812 182.247 77.9778 180.662 78.6934C179.078 79.4089 177.264 79.7666 175.219 79.7666Z" data-figma-gradient-fill="{&#34;type&#34;:&#34;GRADIENT_DIAMOND&#34;,&#34;stops&#34;:[{&#34;color&#34;:{&#34;r&#34;:0.066666670143604279,&#34;g&#34;:0.20000000298023224,&#34;b&#34;:0.33333334326744080,&#34;a&#34;:0.87058824300765991},&#34;position&#34;:0.0},{&#34;color&#34;:{&#34;r&#34;:0.21960784494876862,&#34;g&#34;:0.45490196347236633,&#34;b&#34;:1.0,&#34;a&#34;:0.93529415130615234},&#34;position&#34;:0.12019230425357819},{&#34;color&#34;:{&#34;r&#34;:0.38823530077934265,&#34;g&#34;:0.40000000596046448,&#34;b&#34;:0.94509804248809814,&#34;a&#34;:1.0},&#34;position&#34;:1.0}],&#34;stopsVar&#34;:[{&#34;color&#34;:{&#34;r&#34;:0.066666670143604279,&#34;g&#34;:0.20000000298023224,&#34;b&#34;:0.33333334326744080,&#34;a&#34;:0.87058824300765991},&#34;position&#34;:0.0},{&#34;color&#34;:{&#34;r&#34;:0.21960784494876862,&#34;g&#34;:0.45490196347236633,&#34;b&#34;:1.0,&#34;a&#34;:0.93529415130615234},&#34;position&#34;:0.12019230425357819},{&#34;color&#34;:{&#34;r&#34;:0.38823530077934265,&#34;g&#34;:0.40000000596046448,&#34;b&#34;:0.94509804248809814,&#34;a&#34;:1.0},&#34;position&#34;:1.0}],&#34;transform&#34;:{&#34;m00&#34;:143.0,&#34;m01&#34;:-127.67856597900391,&#34;m02&#34;:121.07267761230469,&#34;m10&#34;:95.535720825195312,&#34;m11&#34;:594.5051269531250,&#34;m12&#34;:-285.78826904296875},&#34;opacity&#34;:1.0,&#34;blendMode&#34;:&#34;NORMAL&#34;,&#34;visible&#34;:true}"/>
<defs>
<clipPath id="paint0_diamond_1007_4000_clip_path"><path d="M7.76172 27.877V26.377H4.77016L6.55969 28.7742L7.76172 27.877ZM15.6693 27.877L16.8487 26.9502L16.3983 26.377H15.6693V27.877ZM7.76172 27.877V29.377H15.6693V27.877V26.377H7.76172V27.877ZM15.6693 27.877L14.4898 28.8037L30.3049 48.932L31.4844 48.0053L32.6639 47.0785L16.8487 26.9502L15.6693 27.877ZM7.76172 27.877L6.55969 28.7742L19.2597 45.7875L20.4617 44.8902L21.6638 43.9929L8.96375 26.9797L7.76172 27.877Z" mask="url(#path-3-outside-1_1007_4000)"/></clipPath><clipPath id="paint1_diamond_1007_4000_clip_path"><path d="M26.6925 47.7569H24.6925C24.6925 49.3226 23.4232 50.5919 21.8575 50.5919V52.5919V54.5919C25.6323 54.5919 28.6925 51.5317 28.6925 47.7569H26.6925ZM21.8575 52.5919V50.5919C20.2917 50.5919 19.0225 49.3226 19.0225 47.7569H17.0225H15.0225C15.0225 51.5317 18.0826 54.5919 21.8575 54.5919V52.5919ZM17.0225 47.7569H19.0225C19.0225 46.1911 20.2917 44.9219 21.8575 44.9219V42.9219V40.9219C18.0826 40.9219 15.0225 43.982 15.0225 47.7569H17.0225ZM21.8575 42.9219V44.9219C23.4232 44.9219 24.6925 46.1911 24.6925 47.7569H26.6925H28.6925C28.6925 43.982 25.6323 40.9219 21.8575 40.9219V42.9219Z" mask="url(#path-5-inside-2_1007_4000)"/></clipPath><filter id="filter0_d_1007_4000" x="0.155284" y="24.6914" width="65.1426" height="61.5937" filterUnits="userSpaceOnUse" color-interpolation-filters="sRGB">
<feFlood flood-opacity="0" result="BackgroundImageFix"/>
<feColorMatrix in="SourceAlpha" type="matrix" values="0 0 0 0 0 0 0 0 0 0 0 0 0 0 0 0 0 0 127 0" result="hardAlpha"/>
<feOffset dy="1.91698"/>
<feGaussianBlur stdDeviation="0.958491"/>
<feComposite in2="hardAlpha" operator="out"/>
<feColorMatrix type="matrix" values="0 0 0 0 0 0 0 0 0 0 0 0 0 0 0 0 0 0 0.25 0"/>
<feBlend mode="normal" in2="BackgroundImageFix" result="effect1_dropShadow_1007_4000"/>
<feBlend mode="normal" in="SourceGraphic" in2="effect1_dropShadow_1007_4000" result="shape"/>
</filter>
<clipPath id="paint2_diamond_1007_4000_clip_path"><path d="M48.2032 27.696L48.2025 24.696L46.7304 24.6964L45.8299 25.8609L48.2032 27.696ZM57.2302 27.6938L59.5945 29.5404L63.381 24.6923L57.2295 24.6938L57.2302 27.6938ZM16.8093 79.4477L16.8101 82.4477L18.2731 82.4473L19.1737 81.2943L16.8093 79.4477ZM8.18577 79.4499L5.81249 77.6148L2.07266 82.4515L8.18654 82.4499L8.18577 79.4499ZM48.2032 27.696L48.2039 30.696L57.2309 30.6938L57.2302 27.6938L57.2295 24.6938L48.2025 24.696L48.2032 27.696ZM57.2302 27.6938L54.8659 25.8472L14.445 77.6011L16.8093 79.4477L19.1737 81.2943L59.5945 29.5404L57.2302 27.6938ZM16.8093 79.4477L16.8086 76.4477L8.18499 76.4499L8.18577 79.4499L8.18654 82.4499L16.8101 82.4477L16.8093 79.4477ZM8.18577 79.4499L10.5591 81.285L50.5765 29.5311L48.2032 27.696L45.8299 25.8609L5.81249 77.6148L8.18577 79.4499Z" mask="url(#path-7-outside-3_1007_4000)"/></clipPath><clipPath id="paint3_diamond_1007_4000_clip_path"><path d="M57.125 81.3887V82.8887H60.1166L58.327 80.4914L57.125 81.3887ZM49.2174 81.3887L48.038 82.3154L48.4884 82.8887H49.2174V81.3887ZM57.125 81.3887V79.8887H49.2174V81.3887V82.8887H57.125V81.3887ZM49.2174 81.3887L50.3969 80.4619L34.5818 60.3336L33.4023 61.2604L32.2229 62.1871L48.038 82.3154L49.2174 81.3887ZM57.125 81.3887L58.327 80.4914L45.627 63.4782L44.425 64.3755L43.223 65.2727L55.923 82.286L57.125 81.3887Z" mask="url(#path-10-outside-4_1007_4000)"/></clipPath><clipPath id="paint4_diamond_1007_4000_clip_path"><path d="M38.1923 61.499H40.1923C40.1923 59.9333 41.4616 58.664 43.0273 58.664V56.664V54.664C39.2524 54.664 36.1923 57.7241 36.1923 61.499H38.1923ZM43.0273 56.664V58.664C44.593 58.664 45.8623 59.9333 45.8623 61.499H47.8623H49.8623C49.8623 57.7241 46.8022 54.664 43.0273 54.664V56.664ZM47.8623 61.499H45.8623C45.8623 63.0647 44.593 64.334 43.0273 64.334V66.334V68.334C46.8022 68.334 49.8623 65.2739 49.8623 61.499H47.8623ZM43.0273 66.334V64.334C41.4616 64.334 40.1923 63.0647 40.1923 61.499H38.1923H36.1923C36.1923 65.2739 39.2524 68.334 43.0273 68.334V66.334Z" mask="url(#path-12-inside-5_1007_4000)"/></clipPath><clipPath id="paint5_diamond_1007_4000_clip_path"><path d="M79.804 79.7666C76.4819 79.7666 73.6966 79.2044 71.4478 78.0801C69.2501 76.9557 67.6147 75.3202 66.5414 73.1737C65.4681 70.976 64.9315 68.2673 64.9315 65.0475V48.7184H60.9451C59.7185 48.7184 58.773 48.4117 58.1085 47.7984C57.4441 47.134 57.1119 46.2396 57.1119 45.1153C57.1119 43.9398 57.4441 43.0454 58.1085 42.4321C58.773 41.8188 59.7185 41.5121 60.9451 41.5121H64.9315V34.5359C64.9315 32.9515 65.3404 31.7505 66.1581 30.9327C67.0269 30.115 68.228 29.7061 69.7612 29.7061C71.2945 29.7061 72.47 30.115 73.2877 30.9327C74.1054 31.7505 74.5143 32.9515 74.5143 34.5359V41.5121H82.6405C83.8671 41.5121 84.8126 41.8188 85.477 42.4321C86.1414 43.0454 86.4736 43.9398 86.4736 45.1153C86.4736 46.2396 86.1414 47.134 85.477 47.7984C84.8126 48.4117 83.8671 48.7184 82.6405 48.7184H74.5143V64.5108C74.5143 66.964 75.0509 68.8039 76.1242 70.0305C77.1975 71.2571 78.9351 71.8704 81.3372 71.8704C82.2061 71.8704 82.9727 71.7937 83.6371 71.6404C84.3015 71.4871 84.8893 71.3849 85.4003 71.3338C86.0136 71.2827 86.5247 71.4871 86.9336 71.9471C87.3424 72.3559 87.5469 73.2248 87.5469 74.5536C87.5469 75.5758 87.368 76.4957 87.0102 77.3134C86.7036 78.0801 86.1158 78.6167 85.247 78.9233C84.5826 79.1278 83.7138 79.3066 82.6405 79.46C81.5672 79.6644 80.6217 79.7666 79.804 79.7666ZM110.155 79.7666C105.913 79.7666 102.259 78.9744 99.1924 77.3901C96.1259 75.8057 93.7493 73.557 92.0628 70.6438C90.4273 67.7306 89.6096 64.2808 89.6096 60.2944C89.6096 56.4102 90.4017 53.0115 91.9861 50.0983C93.6216 47.1851 95.8448 44.9108 98.6557 43.2754C101.518 41.5888 104.763 40.7455 108.392 40.7455C111.049 40.7455 113.426 41.1799 115.521 42.0488C117.668 42.9176 119.482 44.1698 120.964 45.8052C122.498 47.4407 123.648 49.4339 124.414 51.7849C125.232 54.0847 125.641 56.6913 125.641 59.6044C125.641 60.5244 125.309 61.2399 124.644 61.751C124.031 62.211 123.137 62.4409 121.961 62.4409H97.3525V56.9213H118.895L117.668 58.0712C117.668 55.7202 117.31 53.7525 116.595 52.1682C115.93 50.5838 114.934 49.3828 113.605 48.5651C112.327 47.6962 110.717 47.2618 108.775 47.2618C106.629 47.2618 104.789 47.7729 103.255 48.795C101.773 49.7661 100.623 51.1716 99.8057 53.0115C99.039 54.8003 98.6557 56.9468 98.6557 59.4511V59.9877C98.6557 64.1786 99.6268 67.3218 101.569 69.4172C103.562 71.4615 106.475 72.4837 110.308 72.4837C111.637 72.4837 113.119 72.3304 114.755 72.0237C116.441 71.666 118.026 71.0782 119.508 70.2605C120.581 69.6472 121.527 69.3917 122.344 69.4939C123.162 69.545 123.801 69.8261 124.261 70.3372C124.772 70.8482 125.079 71.4871 125.181 72.2537C125.283 72.9692 125.13 73.7103 124.721 74.4769C124.363 75.2435 123.724 75.908 122.804 76.4701C121.016 77.5945 118.946 78.4378 116.595 79C114.295 79.5111 112.148 79.7666 110.155 79.7666ZM138.136 79.6133C136.552 79.6133 135.325 79.2044 134.456 78.3867C133.639 77.5179 133.23 76.2913 133.23 74.7069V45.7286C133.23 44.1442 133.639 42.9432 134.456 42.1254C135.274 41.3077 136.424 40.8988 137.906 40.8988C139.388 40.8988 140.538 41.3077 141.356 42.1254C142.174 42.9432 142.583 44.1442 142.583 45.7286V50.5583H141.816C142.532 47.4918 143.937 45.1664 146.032 43.582C148.128 41.9977 150.913 41.0522 154.389 40.7455C155.462 40.6433 156.305 40.9244 156.918 41.5888C157.583 42.2021 157.966 43.1731 158.068 44.502C158.171 45.7797 157.864 46.8274 157.148 47.6451C156.484 48.4117 155.462 48.8717 154.082 49.025L152.395 49.1784C149.278 49.485 146.927 50.4561 145.342 52.0915C143.758 53.6759 142.966 55.9246 142.966 58.8378V74.7069C142.966 76.2913 142.557 77.5179 141.739 78.3867C140.922 79.2044 139.721 79.6133 138.136 79.6133ZM175.219 79.7666C172.51 79.7666 170.083 79.2555 167.936 78.2334C165.841 77.1601 164.18 75.7291 162.953 73.9403C161.778 72.1515 161.19 70.1327 161.19 67.884C161.19 65.1241 161.906 62.952 163.337 61.3677C164.768 59.7322 167.093 58.5567 170.313 57.8412C173.533 57.1257 177.851 56.7679 183.269 56.7679H187.102V62.2876H183.345C180.177 62.2876 177.647 62.4409 175.756 62.7476C173.865 63.0542 172.51 63.5909 171.693 64.3575C170.926 65.073 170.543 66.0952 170.543 67.424C170.543 69.1106 171.131 70.4905 172.306 71.5638C173.482 72.637 175.117 73.1737 177.212 73.1737C178.899 73.1737 180.381 72.7904 181.659 72.0237C182.988 71.206 184.035 70.1072 184.802 68.7273C185.569 67.3473 185.952 65.763 185.952 63.9742V55.158C185.952 52.6026 185.39 50.7627 184.265 49.6383C183.141 48.514 181.25 47.9518 178.592 47.9518C177.11 47.9518 175.5 48.1306 173.763 48.4884C172.076 48.8462 170.287 49.4595 168.396 50.3283C167.425 50.7883 166.556 50.916 165.79 50.7116C165.074 50.5072 164.512 50.0983 164.103 49.485C163.694 48.8206 163.49 48.1051 163.49 47.3385C163.49 46.5718 163.694 45.8308 164.103 45.1153C164.512 44.3486 165.202 43.7864 166.173 43.4287C168.524 42.4576 170.773 41.7677 172.919 41.3588C175.117 40.9499 177.11 40.7455 178.899 40.7455C182.579 40.7455 185.594 41.3077 187.945 42.4321C190.347 43.5565 192.136 45.2686 193.312 47.5685C194.487 49.8172 195.075 52.7304 195.075 56.308V74.7069C195.075 76.2913 194.691 77.5179 193.925 78.3867C193.158 79.2044 192.059 79.6133 190.628 79.6133C189.197 79.6133 188.073 79.2044 187.255 78.3867C186.489 77.5179 186.105 76.2913 186.105 74.7069V71.0271H186.719C186.361 72.8159 185.645 74.3747 184.572 75.7035C183.55 76.9812 182.247 77.9778 180.662 78.6934C179.078 79.4089 177.264 79.7666 175.219 79.7666Z"/></clipPath><linearGradient id="paint0_diamond_1007_4000" x1="0" y1="0" x2="500" y2="500" gradientUnits="userSpaceOnUse">
<stop stop-color="#113355" stop-opacity="0.870588"/>
<stop offset="0.120192" stop-color="#3874FF" stop-opacity="0.935294"/>
<stop offset="1" stop-color="#6366F1"/>
</linearGradient>
<linearGradient id="paint1_diamond_1007_4000" x1="0" y1="0" x2="500" y2="500" gradientUnits="userSpaceOnUse">
<stop stop-color="#113355" stop-opacity="0.870588"/>
<stop offset="0.120192" stop-color="#3874FF" stop-opacity="0.935294"/>
<stop offset="1" stop-color="#6366F1"/>
</linearGradient>
<linearGradient id="paint2_diamond_1007_4000" x1="0" y1="0" x2="500" y2="500" gradientUnits="userSpaceOnUse">
<stop stop-color="#113355" stop-opacity="0.870588"/>
<stop offset="0.120192" stop-color="#3874FF" stop-opacity="0.935294"/>
<stop offset="1" stop-color="#6366F1"/>
</linearGradient>
<linearGradient id="paint3_diamond_1007_4000" x1="0" y1="0" x2="500" y2="500" gradientUnits="userSpaceOnUse">
<stop stop-color="#113355" stop-opacity="0.870588"/>
<stop offset="0.120192" stop-color="#3874FF" stop-opacity="0.935294"/>
<stop offset="1" stop-color="#6366F1"/>
</linearGradient>
<linearGradient id="paint4_diamond_1007_4000" x1="0" y1="0" x2="500" y2="500" gradientUnits="userSpaceOnUse">
<stop stop-color="#113355" stop-opacity="0.870588"/>
<stop offset="0.120192" stop-color="#3874FF" stop-opacity="0.935294"/>
<stop offset="1" stop-color="#6366F1"/>
</linearGradient>
<linearGradient id="paint5_diamond_1007_4000" x1="0" y1="0" x2="500" y2="500" gradientUnits="userSpaceOnUse">
<stop stop-color="#113355" stop-opacity="0.870588"/>
<stop offset="0.120192" stop-color="#3874FF" stop-opacity="0.935294"/>
<stop offset="1" stop-color="#6366F1"/>
</linearGradient>
</defs>
</svg>
